{"title":"Blowing Wild (1953) Gary Cooper Eng","uid":5295168,"size":630598956,"categoryP":"video","categoryS":"movies","magnet":"?xt=urn:btih:b460b0904f21d0f42392b8801c082581fcc29cc5&amp;dn=Blowing+Wild+%281953%29+Gary+Cooper+Eng&amp;tr=udp%3A%2F%2Ftracker.openbittorrent.com%3A80&amp;tr=udp%3A%2F%2Fopen.demonii.com%3A1337&amp;tr=udp%3A%2F%2Ftracker.coppersurfer.tk%3A6969&amp;tr=udp%3A%2F%2Fexodus.desync.com%3A6969","seeders":3,"leechers":0,"uploader":"johnefp","files":-1,"time":1264031020,"description":"With Gary Cooper and Barbara Stanwyck in the cast, Blowing Wild was a guaranteed hit even before the cameras began turning. Cooper plays oil wildcatter Jeff Dawson, who does his best to bring in a gusher in Mexico despite continual bandit raids. Dawson asks for help from his ex-employer Ward Conway (Anthony Quinn), but Conway, now married to Dawson's ex-lover Marina (Barbara Stanwyck) refuses, fearing that his wife will want to renew her romance with the other man. The predatory Marina, still in love with Dawson, murders her husband, admits her crime to Jeff, and pleads to be taken back to America with him. A timely bandit attack solves everyone's problems in ultra-violent fashion. Blowing Wild was filmed through the facilities of Mexico City's Churubusco Studios. \n\n\n &lt;a href=&quot;\nhttp://www.imdb.com/title/tt0045563/&quot; rel=&quot;nofollow&quot; target=&quot;_NEW&quot;&gt;\nhttp://www.imdb.com/title/tt0045563/&lt;/a&gt;\n\n\n\nDirector:\nHugo Fregonese\n\n\n\n        Gary Cooper\t ... \tJeff Dawson\n\n\tBarbara Stanwyck... \tMarina Conway\n\tRuth Roman\t... \tSal Donnelly\n\n\tAnthony Quinn\t... \tWard 'Paco' Conway\n\tWard Bond\t... \tDutch Peterson\n\n\nVideo #2\n      ID : 2\n      Format : VC-1\n      Format profile : MP@ML\n      Codec ID : WMV3\n      Codec ID/Info : Windows Media Video 9\n      Codec ID/Hint : WMV3\n      Duration : 1h 22mn\n      Bit rate mode : Variable\n      Bit rate : 850 Kbps\n      Width : 512 pixels\n      Height : 384 pixels\n      Display aspect ratio : 4/3\n      Frame rate : 12.500 fps\n      Resolution : 24 bits\n      Scan type : Progressive\n      Bits/(Pixel*Frame) : 0.346\n      Stream size : 499 MiB (83%)\n   Audio #1\n      ID : 1\n      Format : WMA2\n      Format profile : L1\n      Codec ID : 161\n      Codec ID/Info : Windows Media Audio 2\n      Description of the codec : Windows Media Audio 9.2 - 128 kbps, 44 kHz, stereo 1-pass CBR\n      Duration : 1h 25mn\n      Bit rate mode : Constant\n      Bit rate : 128 Kbps\n      Channel(s) : 2 channels\n      Sampling rate : 44.1 KHz\n      Resolution : 16 bits\n      Stream size : 78.1 MiB (13%)\n\n\n\n\n     Please seed at least as much as you D/L.\n      =======================================\n     Thanks \n\n     John","torrent":{"xt":"urn:btih:b460b0904f21d0f42392b8801c082581fcc29cc5","amp;dn":"Blowing+Wild+%281953%29+Gary+Cooper+Eng","amp;tr":["udp%3A%2F%2Ftracker.openbittorrent.com%3A80","udp%3A%2F%2Fopen.demonii.com%3A1337","udp%3A%2F%2Ftracker.coppersurfer.tk%3A6969","udp%3A%2F%2Fexodus.desync.com%3A6969"],"infoHash":"b460b0904f21d0f42392b8801c082581fcc29cc5","infoHashBuffer":{"type":"Buffer","data":[180,96,176,144,79,33,208,244,35,146,184,128,28,8,37,129,252,194,156,197]},"announce":[],"urlList":[]}}